{
  "accessors": [
    {
      "bufferView": 2,
      "componentType": 5126,
      "count": 55211,
      "max": [
        0.020316999405622482,
        0.022918500006198883,
        0.28417301177978516
      ],
      "min": [
        -0.022833399474620819,
        -0.015759600326418877,
        0.19282400608062744
      ],
      "type": "VEC3"
    },
    {
      "bufferView": 2,
      "byteOffset": 662532,
      "componentType": 5126,
      "count": 55211,
      "max": [
        0.99998533725738525,
        0.99999910593032837,
        0.99996954202651978
      ],
      "min": [
        -0.99997633695602417,
        -0.99999850988388062,
        -0.99994051456451416
      ],
      "type": "VEC3"
    },
    {
      "bufferView": 3,
      "componentType": 5126,
      "count": 55211,
      "max": [
        0.99998921155929565,
        0.99995797872543335,
        0.99999254941940308,
        1
      ],
      "min": [
        -0.99984955787658691,
        -0.9999920129776001,
        -0.9999995231628418,
        -1
      ],
      "type": "VEC4"
    },
    {
      "bufferView": 1,
      "componentType": 5126,
      "count": 55211,
      "max": [
        0.99999898672103882,
        0.99994200468063354
      ],
      "min": [
        5.5879398885849696e-09,
        0
      ],
      "type": "VEC2"
    },
    {
      "bufferView": 0,
      "componentType": 5125,
      "count": 313956,
      "max": [
        55210
      ],
      "min": [
        0
      ],
      "type": "SCALAR"
    }
  ],
  "asset": {
    "extras": {
      "author": "Giordani_Mathieu (https://sketchfab.com/Giordani_Mathieu)",
      "license": "CC-BY-4.0 (http://creativecommons.org/licenses/by/4.0/)",
      "source": "https://sketchfab.com/3d-models/fallen-angel-80d17df5ba9a4cc69b4f0ed8b38eb6d6",
      "title": "Fallen Angel"
    },
    "generator": "Sketchfab-8.55.0",
    "version": "2.0"
  },
  "bufferViews": [
    {
      "buffer": 0,
      "byteLength": 1255824,
      "byteOffset": 0,
      "name": "floatBufferViews",
      "target": 34963
    },
    {
      "buffer": 0,
      "byteLength": 441688,
      "byteOffset": 1255824,
      "byteStride": 8,
      "name": "floatBufferViews",
      "target": 34962
    },
    {
      "buffer": 0,
      "byteLength": 1325064,
      "byteOffset": 1697512,
      "byteStride": 12,
      "name": "floatBufferViews",
      "target": 34962
    },
    {
      "buffer": 0,
      "byteLength": 883376,
      "byteOffset": 3022576,
      "byteStride": 16,
      "name": "floatBufferViews",
      "target": 34962
    }
  ],
  "buffers": [
    {
      "byteLength": 3905952,
      "uri": "scene.bin"
    }
  ],
  "images": [
    {
      "uri": "textures/Low_chapeau1_baseColor.png"
    },
    {
      "uri": "textures/Low_chapeau1_metallicRoughness.png"
    },
    {
      "uri": "textures/Low_chapeau1_normal.png"
    }
  ],
  "materials": [
    {
      "doubleSided": true,
      "name": "Low_chapeau1",
      "normalTexture": {
        "index": 2,
        "scale": 1,
        "texCoord": 0
      },
      "occlusionTexture": {
        "index": 1,
        "strength": 1,
        "texCoord": 0
      },
      "pbrMetallicRoughness": {
        "baseColorFactor": [
          1,
          1,
          1,
          1
        ],
        "baseColorTexture": {
          "index": 0,
          "texCoord": 0
        },
        "metallicFactor": 1,
        "metallicRoughnessTexture": {
          "index": 1,
          "texCoord": 0
        },
        "roughnessFactor": 1
      }
    }
  ],
  "meshes": [
    {
      "primitives": [
        {
          "attributes": {
            "NORMAL": 1,
            "POSITION": 0,
            "TANGENT": 2,
            "TEXCOORD_0": 3
          },
          "indices": 4,
          "material": 0,
          "mode": 4
        }
      ]
    }
  ],
  "nodes": [
    {
      "children": [
        1
      ],
      "name": "RootNode (gltf orientation matrix)",
      "rotation": [
        -0.70710678118654746,
        -0,
        -0,
        0.70710678118654757
      ]
    },
    {
      "children": [
        2
      ],
      "matrix": [
        8.652496337890625,
        0,
        0,
        0,
        0,
        8.652496337890625,
        0,
        0,
        0,
        0,
        8.652496337890625,
        0,
        0,
        0,
        0,
        1
      ],
      "name": "RootNode (model correction matrix)"
    },
    {
      "children": [
        3
      ],
      "name": "Final_angel.obj.cleaner.materialmerger.gles"
    },
    {
      "mesh": 0,
      "name": ""
    }
  ],
  "samplers": [
    {
      "magFilter": 9729,
      "minFilter": 9987,
      "wrapS": 10497,
      "wrapT": 10497
    }
  ],
  "scene": 0,
  "scenes": [
    {
      "name": "OSG_Scene",
      "nodes": [
        0
      ]
    }
  ],
  "textures": [
    {
      "sampler": 0,
      "source": 0
    },
    {
      "sampler": 0,
      "source": 1
    },
    {
      "sampler": 0,
      "source": 2
    }
  ]
}

